<?xml version="1.0" standalone="no"?>
<!DOCTYPE svg PUBLIC "-//W3C//DTD SVG 20010904//EN"
 "http://www.w3.org/TR/2001/REC-SVG-20010904/DTD/svg10.dtd">
<svg version="1.0" xmlns="http://www.w3.org/2000/svg"
 width="469.000000pt" height="469.000000pt" viewBox="0 0 469.000000 469.000000"
 preserveAspectRatio="xMidYMid meet">
<metadata>
Created by potrace 1.11, written by Peter Selinger 2001-2013
</metadata>
<g transform="translate(0.000000,469.000000) scale(0.100000,-0.100000)"
fill="#000000" stroke="none">
<path d="M2159 4656 c-2 -2 -31 -6 -64 -10 -33 -3 -70 -8 -81 -10 -12 -3 -37
-7 -55 -10 -108 -18 -221 -47 -320 -81 -41 -14 -81 -28 -89 -29 -80 -19 -414
-194 -474 -248 -11 -10 -28 -20 -38 -24 -10 -3 -18 -9 -18 -14 0 -5 -8 -11
-18 -14 -10 -4 -28 -15 -40 -26 -11 -11 -47 -41 -79 -66 -81 -66 -225 -214
-306 -314 -236 -293 -400 -647 -474 -1020 -58 -293 -53 -672 13 -950 9 -36 17
-72 19 -81 11 -53 71 -232 106 -316 41 -98 131 -275 154 -303 6 -8 14 -22 17
-30 8 -21 135 -198 188 -261 68 -80 238 -247 316 -310 162 -133 406 -275 604
-353 167 -66 378 -118 565 -141 114 -13 462 -14 525 -1 14 3 57 10 95 16 168
26 386 90 545 160 100 44 238 116 261 136 8 8 19 14 23 14 16 0 209 140 295
215 58 50 214 207 251 253 19 24 45 56 58 70 53 63 178 261 236 376 111 217
201 498 231 720 3 23 8 59 11 81 10 71 13 418 4 480 -5 33 -11 85 -15 115 -48
399 -263 873 -540 1190 -46 53 -206 210 -261 257 -312 264 -747 460 -1134 509
-25 3 -56 8 -70 11 -28 6 -436 14 -441 9z"/>
</g>
</svg>
